<?xml version="1.0" encoding="utf-8"?>
<!-- Generator: Adobe Illustrator 17.0.0, SVG Export Plug-In . SVG Version: 6.00 Build 0)  -->
<!DOCTYPE svg PUBLIC "-//W3C//DTD SVG 1.1//EN" "http://www.w3.org/Graphics/SVG/1.1/DTD/svg11.dtd">
<svg version="1.1" id="图层_1" xmlns="http://www.w3.org/2000/svg" xmlns:xlink="http://www.w3.org/1999/xlink" x="0px" y="0px"
	 width="28.35px" height="28.35px" viewBox="0 0 28.35 28.35" enable-background="new 0 0 28.35 28.35" xml:space="preserve">
<path d="M8.939,21.9c-0.323,0-0.589-0.266-0.589-0.593c0-0.326,0.266-0.596,0.589-0.596h10.468c0.331,0,0.589,0.27,0.589,0.596
	c0,0.327-0.258,0.593-0.589,0.593H8.939L8.939,21.9z M7.043,18.332L7.043,18.332c-0.331,0-0.593-0.262-0.593-0.589
	c0-0.334,0.262-0.593,0.593-0.593h14.26c0.331,0,0.596,0.258,0.596,0.593c0,0.327-0.266,0.589-0.596,0.589H7.043L7.043,18.332z
	 M8.939,14.772L8.939,14.772c-0.323,0-0.589-0.266-0.589-0.6c0-0.327,0.266-0.593,0.589-0.593h10.468
	c0.331,0,0.589,0.266,0.589,0.593c0,0.334-0.258,0.6-0.589,0.6H8.939L8.939,14.772z M7.043,11.204L7.043,11.204
	c-0.331,0-0.593-0.27-0.593-0.6c0-0.323,0.262-0.589,0.593-0.589h14.26c0.331,0,0.596,0.266,0.596,0.589c0,0.33-0.266,0.6-0.596,0.6
	H7.043L7.043,11.204z M8.939,7.639L8.939,7.639c-0.323,0-0.589-0.274-0.589-0.596c0-0.33,0.266-0.593,0.589-0.593h10.468
	c0.331,0,0.589,0.262,0.589,0.593c0,0.323-0.258,0.596-0.589,0.596H8.939L8.939,7.639z"/>
</svg>
