<?xml version="1.0" encoding="utf-8"?>
<!-- Generator: Adobe Illustrator 17.0.0, SVG Export Plug-In . SVG Version: 6.00 Build 0)  -->
<!DOCTYPE svg PUBLIC "-//W3C//DTD SVG 1.1//EN" "http://www.w3.org/Graphics/SVG/1.1/DTD/svg11.dtd">
<svg version="1.1" id="图层_1" xmlns="http://www.w3.org/2000/svg" xmlns:xlink="http://www.w3.org/1999/xlink" x="0px" y="0px"
	 width="28.35px" height="28.35px" viewBox="0 0 28.35 28.35" enable-background="new 0 0 28.35 28.35" xml:space="preserve">
<path d="M21.989,17.529c0.331,0,0.6-0.262,0.6-0.589c0-0.334-0.27-0.593-0.6-0.593H7.725c-0.327,0-0.593,0.258-0.593,0.593
	c0,0.327,0.266,0.589,0.593,0.589H21.989L21.989,17.529z M21.989,13.969L21.989,13.969c0.331,0,0.6-0.266,0.6-0.6
	c0-0.327-0.27-0.593-0.6-0.593H7.77c-0.339,0-0.6,0.266-0.6,0.593c0,0.334,0.262,0.6,0.6,0.6H21.989L21.989,13.969z M21.989,10.401
	L21.989,10.401c0.331,0,0.6-0.27,0.6-0.6c0-0.323-0.27-0.589-0.6-0.589H7.725c-0.327,0-0.593,0.266-0.593,0.589
	c0,0.33,0.266,0.6,0.593,0.6H21.989L21.989,10.401z M21.992,6.837L21.992,6.837c0.327,0,0.596-0.274,0.596-0.596
	c0-0.33-0.27-0.593-0.596-0.593H7.798c-0.339,0-0.6,0.262-0.6,0.593c0,0.323,0.262,0.596,0.6,0.596H21.992L21.992,6.837z
	 M21.992,21.097L21.992,21.097c0.327,0,0.596-0.266,0.596-0.593c0-0.326-0.27-0.596-0.596-0.596H7.741c-0.339,0-0.6,0.27-0.6,0.596
	c0,0.327,0.262,0.593,0.6,0.593H21.992L21.992,21.097z"/>
</svg>
