<?xml version="1.0" encoding="utf-8"?>
<!-- Generator: Adobe Illustrator 17.0.0, SVG Export Plug-In . SVG Version: 6.00 Build 0)  -->
<!DOCTYPE svg PUBLIC "-//W3C//DTD SVG 1.1//EN" "http://www.w3.org/Graphics/SVG/1.1/DTD/svg11.dtd">
<svg version="1.1" id="图层_1" xmlns="http://www.w3.org/2000/svg" xmlns:xlink="http://www.w3.org/1999/xlink" x="0px" y="0px"
	 width="28.35px" height="28.35px" viewBox="0 0 28.35 28.35" enable-background="new 0 0 28.35 28.35" xml:space="preserve">
<path d="M21.043,15.505c-0.717-0.892-1.773-1.458-3.168-1.701c1.124-0.223,2.006-0.739,2.646-1.548s0.959-1.761,0.959-2.856
	c0-1.163-0.315-2.175-0.944-3.038c-0.63-0.863-1.376-1.43-2.239-1.701c-0.862-0.271-1.948-0.407-3.256-0.407H7.307v0.014H6.316V7.06
	h0.991v14.132H6.231v2.875h1.076v0.028h8.678c2.083,0,3.626-0.521,4.629-1.562s1.504-2.328,1.504-3.859
	C22.119,17.453,21.76,16.397,21.043,15.505z M17.061,7.736c0.591,0.431,0.887,1.102,0.887,2.013c0,0.824-0.259,1.502-0.778,2.035
	c-0.519,0.533-1.224,0.799-2.115,0.799h-4.361V7.089h4.288C15.776,7.089,16.469,7.305,17.061,7.736z M17.635,20.345
	c-0.567,0.514-1.34,0.77-2.318,0.77h-4.623v-5.698h4.637c0.95,0,1.713,0.267,2.29,0.8c0.576,0.533,0.865,1.216,0.865,2.049
	C18.485,19.139,18.202,19.832,17.635,20.345z"/>
</svg>
