<?xml version="1.0" encoding="utf-8"?>
<!-- Generator: Adobe Illustrator 17.0.0, SVG Export Plug-In . SVG Version: 6.00 Build 0)  -->
<!DOCTYPE svg PUBLIC "-//W3C//DTD SVG 1.1//EN" "http://www.w3.org/Graphics/SVG/1.1/DTD/svg11.dtd">
<svg version="1.1" id="图层_1" xmlns="http://www.w3.org/2000/svg" xmlns:xlink="http://www.w3.org/1999/xlink" x="0px" y="0px"
	 width="28.35px" height="28.35px" viewBox="0 0 28.35 28.35" enable-background="new 0 0 28.35 28.35" xml:space="preserve">
<g>
	<path d="M4.318,25.733h4.792c0.543,0,0.88-0.332,0.88-0.738c0-0.42-0.337-0.748-0.738-0.748H4.46c-0.406,0-0.747,0.328-0.747,0.748
		C3.713,25.401,4.054,25.733,4.318,25.733z"/>
	<path d="M15.405,17.162l-4.812,5.242c-0.286,0.312-0.786,0.337-1.108,0.055l-0.018-0.009l-0.293-0.264
		c-0.127,0.786-0.812,1.392-1.625,1.433c-0.959,0.048-1.779-0.686-1.827-1.632c-0.04-0.803,0.505-1.53,1.288-1.743l-0.316-0.277
		c-0.321-0.282-0.346-0.778-0.055-1.095l0.022-0.011l4.785-5.226l-0.393-0.353c-0.321-0.282-0.346-0.777-0.055-1.095l7.189-7.845
		c0.292-0.302,0.789-0.327,1.11-0.056l0.023,0.009l1.058,0.965c0.098-1.058,0.978-1.897,2.061-1.951
		c1.198-0.06,2.22,0.852,2.279,2.032c0.053,1.065-0.702,2.017-1.75,2.213l1.079,0.974c0.326,0.277,0.351,0.777,0.054,1.085
		l-0.016,0.031l-7.168,7.819c-0.305,0.308-0.799,0.333-1.12,0.056l-0.014-0.019L15.405,17.162L15.405,17.162z M23.778,5.39
		L23.778,5.39c-0.033-0.669-0.613-1.181-1.291-1.147c-0.676,0.034-1.204,0.606-1.17,1.271l0,0c0.016,0.327,0.152,0.623,0.398,0.854
		c0.253,0.226,0.575,0.329,0.894,0.313C23.287,6.646,23.812,6.068,23.778,5.39L23.778,5.39z M8.255,21.861L8.255,21.861
		c-0.009-0.188-0.097-0.392-0.261-0.538l0-0.005c-0.166-0.136-0.37-0.205-0.569-0.195c-0.213,0.011-0.415,0.115-0.559,0.256
		C6.723,21.53,6.65,21.738,6.66,21.941c0.022,0.436,0.397,0.775,0.844,0.752C7.938,22.671,8.277,22.297,8.255,21.861L8.255,21.861z
		 M13.074,12.998L13.074,12.998l0.011,0.005l3.181,2.846l6.147-6.69l-3.59-3.193l-6.129,6.689L13.074,12.998L13.074,12.998z
		 M14.235,16.128L14.235,16.128l-1.626-1.453l-4.274,4.664l1.632,1.453L14.235,16.128L14.235,16.128z"/>
</g>
</svg>
