<?xml version="1.0" encoding="utf-8"?>
<!-- Generator: Adobe Illustrator 17.0.0, SVG Export Plug-In . SVG Version: 6.00 Build 0)  -->
<!DOCTYPE svg PUBLIC "-//W3C//DTD SVG 1.1//EN" "http://www.w3.org/Graphics/SVG/1.1/DTD/svg11.dtd">
<svg version="1.1" id="图层_1" xmlns="http://www.w3.org/2000/svg" xmlns:xlink="http://www.w3.org/1999/xlink" x="0px" y="0px"
	 width="28.35px" height="28.35px" viewBox="0 0 28.35 28.35" enable-background="new 0 0 28.35 28.35" xml:space="preserve">
<path fill="none" d="M9.496,8.084l0.031-0.025c0.275-0.256,0.661-0.419,1.074-0.419c0.437,0,0.83,0.181,1.104,0.444
	c0.3,0.293,0.469,0.693,0.469,1.111c0,0.437-0.169,0.83-0.469,1.117c-0.274,0.287-0.668,0.456-1.104,0.456
	c-0.424,0-0.818-0.169-1.105-0.456C9.215,10.025,9.04,9.631,9.04,9.195C9.04,8.777,9.215,8.377,9.496,8.084z M5.74,13.996
	c0-0.483,0.193-0.912,0.504-1.229l0.028-0.028c0.318-0.283,0.739-0.463,1.202-0.463c0.47,0,0.905,0.2,1.223,0.49
	C9.007,13.085,9.2,13.513,9.2,13.996c0,0.484-0.194,0.912-0.504,1.236c-0.318,0.29-0.753,0.491-1.223,0.491
	c-0.477,0-0.919-0.201-1.229-0.491C5.933,14.908,5.74,14.48,5.74,13.996z"/>
<path d="M5.096,22.416c-0.915-0.805-0.899-0.95-1.53-2.111c-1.23-2.285-1.648-4.794-1.379-7.197c0.268-2.534,1.298-4.95,2.902-6.879
	c1.305-1.56,3.027-2.777,4.925-3.557c1.879-0.78,3.957-1.136,5.967-0.943c1.766,0.163,2.361,0.354,3.217,0.796
	c0.308,0.343,0.316,0.651,0.168,1.024c-0.139,0.35-0.404,0.612-0.781,0.734c-1.19-0.494-1.383-0.494-2.784-0.619
	c-1.698-0.162-3.446,0.15-5.062,0.805c-1.586,0.662-3.04,1.692-4.145,3.015c-1.367,1.636-2.234,3.683-2.478,5.823
	c-0.219,2.041,0.125,4.157,1.167,6.073c0.418,0.786,0.647,1.086,1.219,1.734c0.114,0.371,0.128,0.622,0.044,0.845
	c-0.08,0.211-0.371,0.416-0.539,0.497l-0.516,0.073L5.096,22.416z"/>
<path d="M13.209,23.894c0.124-0.045,0.897-0.219,1.361-0.455c1.05-0.534,1.217-0.493,1.654-1.685
	c0.113-0.308,0.193-0.668,0.224-1.061c0.075-1.154,0.312-1.96,0.693-2.509c0.487-0.693,1.105-0.986,1.841-1.036
	c0.943-0.05,1.954,0.343,2.977,0.768l0.518,0.194l0.025,0.013c1.317,0.506,2.041,0.443,2.422,0c0.468-0.587,0.612-1.779,0.612-3.271
	c0-2.902-1.081-5.567-2.803-7.621c-0.196-0.233-0.174-0.244-0.487-0.527c-0.147-0.34-0.084-0.746,0.361-1.156
	c0.229-0.21,0.717-0.313,0.966-0.236c0.52,0.434,0.176,0.14,0.621,0.652c2.079,2.353,3.296,5.499,3.296,8.889
	c0,1.903-0.256,3.501-1.067,4.5c-0.924,1.136-2.378,1.46-4.625,0.587l-0.031-0.013l-0.531-0.206v-0.019v0.019
	c-0.817-0.338-1.61-0.668-2.128-0.624c-0.15,0.013-0.274,0.063-0.362,0.2c-0.181,0.256-0.3,0.743-0.362,1.517
	c-0.037,0.592,0.078,1.319-0.103,1.8c-0.506,1.336-1.485,2.234-2.678,2.771c-0.949,0.446-1.998,0.536-2.326,0.527
	c-0.251-0.007-0.634-0.304-0.72-0.515c-0.171-0.422,0.062-0.953,0.256-1.164L13.209,23.894z"/>
<path d="M8.696,15.233C9.007,14.908,9.2,14.48,9.2,13.996c0-0.483-0.194-0.912-0.504-1.229c-0.318-0.29-0.753-0.49-1.223-0.49
	c-0.463,0-0.884,0.18-1.202,0.463l-0.028,0.028c-0.311,0.318-0.504,0.746-0.504,1.229c0,0.484,0.193,0.912,0.504,1.236
	c0.31,0.29,0.753,0.491,1.229,0.491C7.943,15.724,8.378,15.523,8.696,15.233z"/>
<path d="M9.92,9.948c0.374,0,0.712-0.145,0.947-0.391c0.257-0.246,0.402-0.584,0.402-0.958c0-0.359-0.145-0.701-0.402-0.953
	c-0.235-0.225-0.573-0.38-0.947-0.38c-0.354,0-0.685,0.139-0.921,0.359L8.972,7.646C8.732,7.897,8.582,8.24,8.582,8.599
	c0,0.374,0.15,0.712,0.391,0.958C9.219,9.803,9.556,9.948,9.92,9.948z"/>
<path d="M14.942,6.936c0.291,0,0.554-0.113,0.737-0.304c0.2-0.192,0.313-0.454,0.313-0.746c0-0.279-0.113-0.546-0.313-0.742
	c-0.183-0.175-0.446-0.296-0.737-0.296c-0.275,0-0.533,0.108-0.717,0.279l-0.021,0.017C14.017,5.341,13.9,5.607,13.9,5.886
	c0,0.291,0.117,0.554,0.304,0.746C14.396,6.824,14.658,6.936,14.942,6.936z"/>
<path fill="none" stroke="#000000" stroke-miterlimit="10" d="M22.186,2.447c0.68,0.517-1.352,4.391-2.161,5.788l-5.556,10.012
	c-0.915,1.384-2.208,2.088-2.888,1.571l0,0c-0.68-0.517-0.488-2.058,0.427-3.442l6.576-9.948C19.5,5.044,21.506,1.931,22.186,2.447
	L22.186,2.447z"/>
<path fill="none" stroke="#000000" stroke-miterlimit="10" d="M12.607,22.194c-0.223,1.797-1.445,2.957-2.869,3.432
	c-0.347,0.116-1.004,0.21-1.497,0.213c-0.429,0.003-1.282,0.048-1.496-0.392c-0.126-0.258,0.631-0.695,0.763-1.329
	c0.138-0.661-0.155-1.229-0.155-1.862c0.001-0.807,0.246-1.512,0.685-2.052c0.525-0.645,1.265-1.029,2.063-0.984
	C11.567,19.304,12.751,21.041,12.607,22.194z"/>
<path d="M22.323,5.41"/>
</svg>
