<?xml version="1.0" encoding="utf-8"?>
<!-- Generator: Adobe Illustrator 17.0.0, SVG Export Plug-In . SVG Version: 6.00 Build 0)  -->
<!DOCTYPE svg PUBLIC "-//W3C//DTD SVG 1.1//EN" "http://www.w3.org/Graphics/SVG/1.1/DTD/svg11.dtd">
<svg version="1.1" id="图层_1" xmlns="http://www.w3.org/2000/svg" xmlns:xlink="http://www.w3.org/1999/xlink" x="0px" y="0px"
	 width="28.35px" height="28.35px" viewBox="0 0 28.35 28.35" enable-background="new 0 0 28.35 28.35" xml:space="preserve">
<g>
	<g transform="matrix(0.03320299834012985, 0, 0, 0.03320299834012985, -2.842170943040401e-14, 0)">
		<g>
			<path fill="#040000" d="M369.813,361.06c-8.743-2.65-17.981,2.294-20.631,11.038l-69.485,229.414
				c-2.649,8.743,2.294,17.981,11.038,20.63c1.6,0.485,3.212,0.716,4.803,0.716c7.099,0,13.662-4.607,15.828-11.753l69.485-229.414
				C383.498,372.944,378.558,363.707,369.813,361.06z"/>
		</g>
	</g>
	<g transform="matrix(0.03320299834012985, 0, 0, 0.03320299834012985, -2.842170943040401e-14, 0)">
		<g>
			<path fill="#040000" d="M454.186,361.06c-8.733-2.65-17.981,2.294-20.629,11.038l-69.485,229.414
				c-2.649,8.743,2.294,17.981,11.038,20.63c1.599,0.485,3.212,0.716,4.803,0.716c7.099,0,13.662-4.607,15.828-11.753
				l69.485-229.414C467.876,372.944,462.934,363.707,454.186,361.06z"/>
		</g>
	</g>
	<g transform="matrix(0.03320299834012985, 0, 0, 0.03320299834012985, -2.842170943040401e-14, 0)">
		<g>
			<path fill="#040000" d="M743.879,109.98H131.744c-9.136,0-16.544,7.409-16.544,16.544V738.66c0,9.135,7.407,16.544,16.544,16.544
				h612.136c9.135,0,16.544-7.409,16.544-16.544V126.524C760.423,117.389,753.015,109.98,743.879,109.98z M247.554,143.068H628.07
				v66.177H247.554V143.068z M148.287,143.068h66.177v66.177h-66.177V143.068z M727.335,722.116H148.287V242.334h579.047v479.782
				H727.335z M727.335,209.245h-66.177v-66.177h66.177V209.245z"/>
		</g>
	</g>
	<g transform="matrix(0.03320299834012985, 0, 0, 0.03320299834012985, -2.842170943040401e-14, 0)">
		<g>
			<circle fill="#040000" cx="233.491" cy="418.81" r="16.544"/>
		</g>
	</g>
	<g transform="matrix(0.03320299834012985, 0, 0, 0.03320299834012985, -2.842170943040401e-14, 0)">
		<g>
			<circle fill="#040000" cx="233.491" cy="564.399" r="16.544"/>
		</g>
	</g>
	<g transform="matrix(0.03320299834012985, 0, 0, 0.03320299834012985, -2.842170943040401e-14, 0)">
		<g>
			<path fill="#040000" d="M656.194,589.762H502.334c-9.135,0-16.544,7.409-16.544,16.544s7.409,16.544,16.544,16.544h153.861
				c9.135,0,16.544-7.409,16.544-16.544C672.74,597.17,665.331,589.762,656.194,589.762z"/>
		</g>
	</g>
</g>
</svg>
