<?xml version="1.0" encoding="utf-8"?>
<!-- Generator: Adobe Illustrator 17.0.0, SVG Export Plug-In . SVG Version: 6.00 Build 0)  -->
<!DOCTYPE svg PUBLIC "-//W3C//DTD SVG 1.1//EN" "http://www.w3.org/Graphics/SVG/1.1/DTD/svg11.dtd">
<svg version="1.1" id="图层_1" xmlns="http://www.w3.org/2000/svg" xmlns:xlink="http://www.w3.org/1999/xlink" x="0px" y="0px"
	 width="28.35px" height="28.35px" viewBox="0 0 28.35 28.35" enable-background="new 0 0 28.35 28.35" xml:space="preserve">
<g>
	<g transform="matrix(0.1655159890651703, 0, 0, 0.1655159890651703, 16.585067749023438, 22.938426971435547)">
		<path fill="#040000" d="M24.906-93.708c-22.48-22.483-59.056-22.483-81.532-0.005c-22.48,22.477-22.478,59.053,0.002,81.535
			c22.474,22.477,59.049,22.477,81.527-0.004C47.382-34.66,47.381-71.234,24.906-93.708z M18.615-18.469
			c-19.01,19.01-49.941,19.012-68.953,0.002c-19.014-19.012-19.011-49.948,0-68.958c19.01-19.009,49.942-19.011,68.956,0.002
			C37.627-68.414,37.625-37.478,18.615-18.469z M-37.365-68.549c0-3.72,3.017-6.738,6.738-6.738s6.738,3.016,6.738,6.738
			c0,3.723-3.017,6.74-6.738,6.74S-37.365-64.826-37.365-68.549z M-6.812-68.549c0-3.72,3.02-6.738,6.741-6.738
			c3.719,0,6.736,3.016,6.736,6.738c0,3.723-3.016,6.74-6.736,6.74C-3.793-61.809-6.812-64.826-6.812-68.549z M9.117-40.952
			C4.943-31.294-4.837-25.055-15.795-25.055c-11.193,0-21.031-6.271-25.063-15.977c-0.691-1.661,0.097-3.569,1.76-4.261
			c0.409-0.169,0.833-0.248,1.25-0.248c1.278,0,2.491,0.754,3.011,2.009c3.017,7.266,10.491,11.958,19.042,11.958
			c8.356,0,15.786-4.696,18.929-11.966c0.716-1.651,2.634-2.414,4.287-1.698C9.071-44.521,9.833-42.603,9.117-40.952z"/>
	</g>
</g>
</svg>
