<?xml version="1.0" encoding="utf-8"?>
<!-- Generator: Adobe Illustrator 17.0.0, SVG Export Plug-In . SVG Version: 6.00 Build 0)  -->
<!DOCTYPE svg PUBLIC "-//W3C//DTD SVG 1.1//EN" "http://www.w3.org/Graphics/SVG/1.1/DTD/svg11.dtd">
<svg version="1.1" id="图层_1" xmlns="http://www.w3.org/2000/svg" xmlns:xlink="http://www.w3.org/1999/xlink" x="0px" y="0px"
	 width="28.35px" height="28.35px" viewBox="0 0 28.35 28.35" enable-background="new 0 0 28.35 28.35" xml:space="preserve">
<g>
	<path fill="#040000" d="M14.267,22.209l8.497-9.559c0.797-0.929,0.797-2.39-0.133-3.319l-3.584-3.584
		C18.648,5.216,17.984,4.95,17.32,4.95h-2.39c-0.664,0-1.328,0.266-1.859,0.797l-8.895,10.09c-0.797,0.929-0.797,2.522,0.133,3.319
		l3.584,3.584c0.398,0.531,1.062,0.797,1.726,0.797h15.135v-1.328C24.755,22.209,14.267,22.209,14.267,22.209z M12.541,22.076
		C12.541,22.076,12.541,21.943,12.541,22.076l-3.584-3.584c-0.531-0.531-0.531-1.195,0-1.726l4.514-5.178h-1.328L8.16,15.969
		c-0.797,0.929-0.797,2.257,0.133,3.186l3.053,3.053H9.62c-0.266,0-0.531-0.133-0.797-0.266l-3.717-3.717
		c-0.398-0.398-0.398-1.062,0-1.46l4.647-5.178h2.39l4.647-5.31h1.328l-4.647,5.31l4.116,4.912l-4.647,5.31
		C12.806,21.943,12.674,21.943,12.541,22.076z"/>
</g>
</svg>
