<?xml version="1.0" encoding="utf-8"?>
<!-- Generator: Adobe Illustrator 17.0.0, SVG Export Plug-In . SVG Version: 6.00 Build 0)  -->
<!DOCTYPE svg PUBLIC "-//W3C//DTD SVG 1.1//EN" "http://www.w3.org/Graphics/SVG/1.1/DTD/svg11.dtd">
<svg version="1.1" id="图层_1" xmlns="http://www.w3.org/2000/svg" xmlns:xlink="http://www.w3.org/1999/xlink" x="0px" y="0px"
	 width="28.35px" height="28.35px" viewBox="0 0 28.35 28.35" enable-background="new 0 0 28.35 28.35" xml:space="preserve">
<g>
	<g id="Page-1_1_">
		<g id="font-size_1_">
			<g id="Page-1">
				<g>
					<g id="font-size">
						<g id="Capa_1">
							<g id="Group">
								<path id="Shape" fill="#040000" d="M20.215,9.087c0.108,0.137,0.272,0.217,0.444,0.217h1.287
									c0.152,0,0.297-0.062,0.404-0.171s0.167-0.258,0.166-0.412l0.002-3.196c-0.004-0.318-0.258-0.574-0.57-0.574H4.969
									c-0.315,0-0.57,0.26-0.57,0.58v3.193c0,0.321,0.255,0.58,0.57,0.58h1.287c0.173,0,0.337-0.08,0.445-0.218L7.67,7.852h4.079
									v15.071c0,0.32,0.255,0.58,0.57,0.58h2.279c0.315,0,0.57-0.26,0.57-0.58V7.852h4.075L20.215,9.087L20.215,9.087
									L20.215,9.087z"/>
								<path id="Shape_1_" fill="#040000" d="M22.838,19.892c-0.15-0.198-0.407-0.276-0.639-0.194l-0.727,0.258l0-2.248
									c0-0.154-0.06-0.302-0.167-0.411c-0.107-0.109-0.252-0.17-0.403-0.17h-0.569c-0.315,0-0.57,0.26-0.57,0.58v2.248
									l-0.727-0.258c-0.231-0.082-0.489-0.004-0.638,0.194c-0.15,0.198-0.158,0.471-0.021,0.678l1.768,2.677
									c0.106,0.16,0.283,0.256,0.473,0.256c0.19,0,0.367-0.096,0.473-0.256l1.768-2.677C22.996,20.363,22.988,20.09,22.838,19.892
									L22.838,19.892L22.838,19.892z"/>
							</g>
						</g>
					</g>
				</g>
			</g>
		</g>
	</g>
</g>
</svg>
