<?xml version="1.0" encoding="utf-8"?>
<!-- Generator: Adobe Illustrator 17.0.0, SVG Export Plug-In . SVG Version: 6.00 Build 0)  -->
<!DOCTYPE svg PUBLIC "-//W3C//DTD SVG 1.1//EN" "http://www.w3.org/Graphics/SVG/1.1/DTD/svg11.dtd">
<svg version="1.1" id="图层_1" xmlns="http://www.w3.org/2000/svg" xmlns:xlink="http://www.w3.org/1999/xlink" x="0px" y="0px"
	 width="28.35px" height="28.35px" viewBox="0 0 28.35 28.35" enable-background="new 0 0 28.35 28.35" xml:space="preserve">
<g>
	<path fill="#040000" d="M1.729,21.688v1.434c0,0.581,0.471,1.053,1.053,1.053h22.895c0.581,0,1.053-0.471,1.053-1.053V5.228
		c0-0.581-0.471-1.053-1.053-1.053H2.781c-0.581,0-1.053,0.471-1.053,1.053 M24.729,6.175v13.967l-5.33-5.441
		c-0.003-0.003-0.006-0.003-0.009-0.006c-0.003-0.003-0.003-0.006-0.006-0.009c-0.047-0.046-0.107-0.068-0.16-0.104
		c-0.061-0.041-0.117-0.092-0.183-0.119c-0.051-0.021-0.106-0.021-0.16-0.033c-0.079-0.018-0.156-0.044-0.237-0.044
		c-0.051,0-0.099,0.02-0.149,0.027c-0.083,0.012-0.167,0.018-0.245,0.05c-0.057,0.023-0.104,0.069-0.157,0.102
		c-0.062,0.039-0.129,0.066-0.183,0.119c-0.003,0.003-0.003,0.006-0.006,0.009c-0.003,0.003-0.007,0.003-0.009,0.006l-1.311,1.338
		l-4.404-4.496c-0.003-0.003-0.007-0.004-0.009-0.006c-0.003-0.003-0.003-0.006-0.006-0.009c-0.047-0.047-0.107-0.068-0.16-0.104
		c-0.061-0.041-0.116-0.092-0.182-0.119c-0.053-0.021-0.109-0.021-0.164-0.034c-0.077-0.018-0.153-0.043-0.232-0.043
		c-0.055,0-0.106,0.021-0.161,0.03c-0.079,0.013-0.159,0.017-0.234,0.048c-0.059,0.024-0.107,0.07-0.161,0.105
		c-0.06,0.039-0.126,0.065-0.179,0.117c-0.003,0.003-0.004,0.006-0.006,0.009c-0.003,0.003-0.006,0.003-0.009,0.006l-6.947,7.092
		V6.175H24.729z M3.729,21.644l7.699-7.86l3.683,3.759l-1.341,1.369c-0.407,0.415-0.4,1.081,0.015,1.488
		c0.205,0.2,0.471,0.301,0.737,0.301c0.273,0,0.546-0.105,0.752-0.316l3.373-3.443l5.126,5.233H3.729V21.644z"/>
	<path fill="#040000" d="M17.393,13.136c1.382,0,2.507-1.125,2.507-2.507s-1.125-2.507-2.507-2.507
		c-1.382,0-2.507,1.125-2.507,2.507S16.011,13.136,17.393,13.136z M17.393,9.701c0.511,0,0.928,0.416,0.928,0.928
		s-0.416,0.928-0.928,0.928s-0.928-0.416-0.928-0.928S16.882,9.701,17.393,9.701z"/>
</g>
</svg>
