<?xml version="1.0" encoding="utf-8"?>
<!-- Generator: Adobe Illustrator 17.0.0, SVG Export Plug-In . SVG Version: 6.00 Build 0)  -->
<!DOCTYPE svg PUBLIC "-//W3C//DTD SVG 1.1//EN" "http://www.w3.org/Graphics/SVG/1.1/DTD/svg11.dtd">
<svg version="1.1" id="图层_1" xmlns="http://www.w3.org/2000/svg" xmlns:xlink="http://www.w3.org/1999/xlink" x="0px" y="0px"
	 width="28.35px" height="28.35px" viewBox="0 0 28.35 28.35" enable-background="new 0 0 28.35 28.35" xml:space="preserve">
<g>
	<path d="M23.383,18.391H11.419c-0.406,0-0.747,0.33-0.747,0.743c0,0.41,0.342,0.748,0.747,0.748h11.964
		c0.401,0,0.738-0.337,0.738-0.748C24.121,18.721,23.784,18.391,23.383,18.391z"/>
	<path d="M23.318,22.723H3.7c-0.406,0-0.747,0.33-0.747,0.743c0,0.41,0.342,0.748,0.747,0.748h19.618
		c0.401,0,0.738-0.337,0.738-0.748C24.056,23.053,23.719,22.723,23.318,22.723z"/>
	<path d="M11.419,10.925h11.964c0.401,0,0.738-0.332,0.738-0.738c0-0.42-0.337-0.748-0.738-0.748H11.419
		c-0.406,0-0.747,0.328-0.747,0.748C10.671,10.592,11.013,10.925,11.419,10.925z"/>
	<path d="M3.729,6.289h19.703c0.401,0,0.738-0.332,0.738-0.738c0-0.42-0.337-0.748-0.738-0.748H3.729
		c-0.406,0-0.747,0.328-0.747,0.748C2.981,5.956,3.323,6.289,3.729,6.289z"/>
	<path d="M23.383,13.927H11.419c-0.406,0-0.747,0.329-0.747,0.74c0,0.406,0.342,0.738,0.747,0.738h11.964
		c0.401,0,0.738-0.333,0.738-0.738C24.121,14.256,23.784,13.927,23.383,13.927z"/>
	<polygon points="3.983,18.674 8.718,14.338 3.983,10.003 	"/>
</g>
</svg>
