<?xml version="1.0" encoding="utf-8"?>
<!-- Generator: Adobe Illustrator 17.0.0, SVG Export Plug-In . SVG Version: 6.00 Build 0)  -->
<!DOCTYPE svg PUBLIC "-//W3C//DTD SVG 1.1//EN" "http://www.w3.org/Graphics/SVG/1.1/DTD/svg11.dtd">
<svg version="1.1" id="图层_1" xmlns="http://www.w3.org/2000/svg" xmlns:xlink="http://www.w3.org/1999/xlink" x="0px" y="0px"
	 width="28.35px" height="28.35px" viewBox="0 0 28.35 28.35" enable-background="new 0 0 28.35 28.35" xml:space="preserve">
<path fill="#040000" d="M23.489,4.799c-2.345-2.345-6.159-2.344-8.503,0l-1.617,1.616c-0.102,0.102-0.191,0.194-0.282,0.308
	c-0.378,0.477-0.298,1.17,0.179,1.548c0.477,0.378,1.169,0.297,1.548-0.179c0.033-0.042,0.069-0.075,0.11-0.116l1.62-1.62
	c1.485-1.486,3.902-1.486,5.451,0.062c1.486,1.486,1.486,3.903,0,5.389l-3.187,3.187c-0.037,0.037-0.068,0.071-0.161,0.147
	c-0.121,0.11-0.251,0.211-0.387,0.304c-0.153-1.335-0.753-2.613-1.778-3.639c-1.436-1.437-3.47-2.05-5.436-1.641
	c-0.003,0.001-0.006,0.001-0.01,0.001c-0.003,0.001-0.007,0.001-0.01,0.001C9.968,10.387,9,10.874,8.274,11.534
	c-0.106,0.085-0.193,0.169-0.298,0.274l-3.177,3.178c-2.345,2.345-2.345,6.159,0.062,8.566c1.172,1.172,2.712,1.758,4.252,1.758
	c1.54,0,3.079-0.586,4.251-1.758l1.62-1.62c0.099-0.099,0.187-0.19,0.276-0.301c0.38-0.475,0.303-1.168-0.172-1.548
	c-0.474-0.38-1.167-0.304-1.548,0.172c-0.036,0.045-0.073,0.079-0.113,0.119l-1.62,1.62c-1.486,1.485-3.904,1.485-5.451-0.062
	c-1.486-1.486-1.486-3.903,0-5.389l3.181-3.181c0.04-0.039,0.075-0.076,0.167-0.153c0.121-0.11,0.251-0.212,0.387-0.304
	c0.153,1.335,0.752,2.613,1.778,3.639c1.144,1.144,2.667,1.766,4.235,1.766c0.4,0,0.803-0.042,1.204-0.125
	c0.003-0.001,0.005-0.001,0.008-0.001c0.003-0.001,0.007-0.001,0.01-0.002c1.056-0.219,2.023-0.706,2.745-1.363
	c0.106-0.084,0.192-0.167,0.301-0.276l3.177-3.178C25.896,11.02,25.896,7.206,23.489,4.799z M13.365,14.923
	c-0.723-0.724-1.111-1.683-1.114-2.67c0.99,0.005,1.96,0.401,2.734,1.174c0.724,0.724,1.111,1.684,1.114,2.672
	C15.109,16.095,14.138,15.696,13.365,14.923z"/>
</svg>
