<?xml version="1.0" encoding="utf-8"?>
<!-- Generator: Adobe Illustrator 17.0.0, SVG Export Plug-In . SVG Version: 6.00 Build 0)  -->
<!DOCTYPE svg PUBLIC "-//W3C//DTD SVG 1.1//EN" "http://www.w3.org/Graphics/SVG/1.1/DTD/svg11.dtd">
<svg version="1.1" id="图层_1" xmlns="http://www.w3.org/2000/svg" xmlns:xlink="http://www.w3.org/1999/xlink" x="0px" y="0px"
	 width="28.35px" height="28.35px" viewBox="0 0 28.35 28.35" enable-background="new 0 0 28.35 28.35" xml:space="preserve">
<g>
	<g>
		<path d="M22.432,19.678H10.752c-0.406,0-0.747,0.33-0.747,0.743c0,0.41,0.342,0.748,0.747,0.748h11.681
			c0.401,0,0.738-0.337,0.738-0.748C23.17,20.008,22.833,19.678,22.432,19.678z"/>
		<path d="M10.752,8.87h11.681c0.401,0,0.738-0.332,0.738-0.738c0-0.42-0.337-0.748-0.738-0.748H10.752
			c-0.406,0-0.747,0.328-0.747,0.748C10.004,8.537,10.346,8.87,10.752,8.87z"/>
		<path d="M22.432,13.525H10.752c-0.406,0-0.747,0.329-0.747,0.74c0,0.406,0.342,0.738,0.747,0.738h11.681
			c0.401,0,0.738-0.333,0.738-0.738C23.17,13.854,22.833,13.525,22.432,13.525z"/>
	</g>
	<g>
		<path d="M6.921,10.315H6.394v-3.36C6.267,7.076,6.1,7.197,5.895,7.318C5.688,7.439,5.503,7.53,5.339,7.59v-0.51
			c0.295-0.139,0.553-0.307,0.773-0.504S6.49,6.188,6.582,6.002h0.34V10.315z"/>
	</g>
	<g>
		<path d="M8.019,15.68v0.507H5.18c-0.004-0.127,0.017-0.249,0.062-0.366c0.072-0.193,0.188-0.384,0.347-0.571s0.39-0.404,0.69-0.65
			c0.467-0.383,0.782-0.686,0.946-0.91s0.246-0.435,0.246-0.634c0-0.209-0.074-0.385-0.225-0.529
			c-0.148-0.144-0.344-0.215-0.584-0.215c-0.254,0-0.457,0.076-0.609,0.229s-0.229,0.363-0.231,0.633L5.28,13.116
			c0.037-0.404,0.177-0.712,0.419-0.924s0.567-0.318,0.976-0.318c0.412,0,0.738,0.114,0.979,0.343s0.36,0.512,0.36,0.85
			c0,0.172-0.035,0.341-0.105,0.507s-0.188,0.341-0.351,0.524s-0.434,0.436-0.812,0.756c-0.316,0.266-0.52,0.446-0.609,0.541
			s-0.164,0.19-0.223,0.286H8.019z"/>
	</g>
	<g>
		<path d="M5.251,21.138l0.527-0.07c0.061,0.299,0.163,0.514,0.309,0.646s0.323,0.198,0.532,0.198c0.248,0,0.457-0.086,0.628-0.258
			s0.257-0.385,0.257-0.639c0-0.242-0.079-0.442-0.237-0.599S6.907,20.18,6.663,20.18c-0.1,0-0.224,0.02-0.372,0.059l0.059-0.463
			c0.035,0.004,0.063,0.006,0.085,0.006c0.225,0,0.427-0.059,0.606-0.176s0.27-0.298,0.27-0.542c0-0.193-0.065-0.354-0.196-0.48
			s-0.3-0.19-0.507-0.19c-0.205,0-0.376,0.064-0.513,0.193s-0.225,0.322-0.264,0.58l-0.527-0.094
			c0.064-0.354,0.211-0.627,0.439-0.822s0.513-0.292,0.853-0.292c0.234,0,0.45,0.05,0.647,0.151s0.348,0.238,0.453,0.412
			c0.104,0.174,0.156,0.358,0.156,0.554c0,0.186-0.05,0.354-0.149,0.507s-0.247,0.273-0.442,0.363
			c0.254,0.059,0.451,0.18,0.592,0.365s0.211,0.416,0.211,0.693c0,0.375-0.137,0.693-0.41,0.954s-0.619,0.391-1.037,0.391
			c-0.377,0-0.689-0.112-0.939-0.337C5.428,21.786,5.286,21.495,5.251,21.138z"/>
	</g>
</g>
</svg>
