<?xml version="1.0" encoding="utf-8"?>
<!-- Generator: Adobe Illustrator 17.0.0, SVG Export Plug-In . SVG Version: 6.00 Build 0)  -->
<!DOCTYPE svg PUBLIC "-//W3C//DTD SVG 1.1//EN" "http://www.w3.org/Graphics/SVG/1.1/DTD/svg11.dtd">
<svg version="1.1" id="图层_1" xmlns="http://www.w3.org/2000/svg" xmlns:xlink="http://www.w3.org/1999/xlink" x="0px" y="0px"
	 width="28.35px" height="28.35px" viewBox="0 0 28.35 28.35" enable-background="new 0 0 28.35 28.35" xml:space="preserve">
<g>
	<g>
		<g>
			<path d="M22.502,19.525H10.821c-0.406,0-0.747,0.33-0.747,0.743c0,0.41,0.342,0.748,0.747,0.748h11.681
				c0.401,0,0.738-0.337,0.738-0.748C23.239,19.855,22.903,19.525,22.502,19.525z"/>
			<path d="M10.821,8.717h11.681c0.401,0,0.738-0.332,0.738-0.738c0-0.42-0.337-0.748-0.738-0.748H10.821
				c-0.406,0-0.747,0.328-0.747,0.748C10.074,8.385,10.415,8.717,10.821,8.717z"/>
			<path d="M22.502,13.373H10.821c-0.406,0-0.747,0.329-0.747,0.74c0,0.406,0.342,0.738,0.747,0.738h11.681
				c0.401,0,0.738-0.333,0.738-0.738C23.239,13.702,22.903,13.373,22.502,13.373z"/>
		</g>
	</g>
	<path d="M7.906,6.82C7.609,6.535,7.194,6.342,6.749,6.342S5.889,6.535,5.592,6.82c-0.3,0.297-0.481,0.718-0.481,1.172
		c0,0.449,0.181,0.845,0.481,1.143v0.018C5.889,9.444,6.303,9.63,6.749,9.63s0.86-0.186,1.157-0.478V9.134
		c0.297-0.297,0.492-0.694,0.492-1.143C8.399,7.537,8.203,7.117,7.906,6.82L7.906,6.82L7.906,6.82z M7.142,8.371L7.142,8.371
		C7.04,8.476,6.897,8.528,6.749,8.528c-0.157,0-0.291-0.053-0.396-0.158C6.256,8.284,6.198,8.143,6.198,7.992
		c0-0.157,0.059-0.297,0.155-0.396V7.584c0.105-0.076,0.239-0.152,0.396-0.152c0.149,0,0.292,0.076,0.393,0.152v0.011
		c0.091,0.099,0.155,0.239,0.155,0.396C7.297,8.143,7.233,8.284,7.142,8.371L7.142,8.371z M7.906,12.939L7.906,12.939
		c-0.297-0.309-0.712-0.478-1.157-0.478s-0.86,0.169-1.157,0.478c-0.3,0.291-0.481,0.694-0.481,1.154
		c0,0.455,0.181,0.863,0.481,1.16v0.011c0.297,0.297,0.711,0.472,1.157,0.472s0.86-0.175,1.157-0.472v-0.011
		c0.297-0.297,0.492-0.706,0.492-1.16C8.399,13.632,8.203,13.23,7.906,12.939L7.906,12.939L7.906,12.939z M7.142,14.489
		L7.142,14.489c-0.101,0.088-0.245,0.152-0.393,0.152c-0.157,0-0.291-0.064-0.396-0.152c-0.096-0.11-0.155-0.239-0.155-0.396
		c0-0.157,0.059-0.291,0.155-0.378c0.105-0.111,0.239-0.17,0.396-0.17c0.149,0,0.292,0.059,0.393,0.17
		c0.091,0.087,0.155,0.221,0.155,0.378C7.297,14.25,7.233,14.379,7.142,14.489L7.142,14.489z M7.906,19.21L7.906,19.21
		c-0.297-0.297-0.712-0.49-1.157-0.49s-0.86,0.192-1.157,0.49c-0.3,0.303-0.481,0.723-0.481,1.16c0,0.455,0.181,0.863,0.481,1.16
		c0.297,0.297,0.711,0.478,1.157,0.478s0.86-0.18,1.157-0.478l0,0c0.297-0.297,0.492-0.706,0.492-1.16
		C8.399,19.933,8.203,19.513,7.906,19.21L7.906,19.21L7.906,19.21z M7.142,20.755L7.142,20.755v0.006
		c-0.101,0.104-0.245,0.163-0.393,0.163c-0.157,0-0.291-0.059-0.396-0.163v-0.006c-0.096-0.088-0.155-0.227-0.155-0.385
		c0-0.14,0.059-0.297,0.155-0.39c0.105-0.111,0.239-0.158,0.396-0.158c0.149,0,0.292,0.047,0.393,0.158
		c0.091,0.093,0.155,0.251,0.155,0.39C7.297,20.527,7.233,20.667,7.142,20.755L7.142,20.755z"/>
</g>
</svg>
