<?xml version="1.0" encoding="utf-8"?>
<!-- Generator: Adobe Illustrator 17.0.0, SVG Export Plug-In . SVG Version: 6.00 Build 0)  -->
<!DOCTYPE svg PUBLIC "-//W3C//DTD SVG 1.1//EN" "http://www.w3.org/Graphics/SVG/1.1/DTD/svg11.dtd">
<svg version="1.1" id="图层_1" xmlns="http://www.w3.org/2000/svg" xmlns:xlink="http://www.w3.org/1999/xlink" x="0px" y="0px"
	 width="28.35px" height="28.35px" viewBox="0 0 28.35 28.35" enable-background="new 0 0 28.35 28.35" xml:space="preserve">
<g>
	<g id="Page-1_2_">
		<g id="code_1_">
			<g id="Page-1_3_">
				<g>
					<g id="code">
						<g id="Group_1_">
							<path id="Shape_3_" d="M7.155,8.515c0.238,1.562,0.476,1.922,0.476,3.484c0,0.961-1.785,1.802-1.785,1.802v1.201
								c0,0,1.785,0.841,1.785,1.802c0,1.562-0.238,1.922-0.476,3.484c-0.357,2.523,0.952,3.724,2.142,3.724h2.499V21.61
								c0,0-2.142,0.24-2.142-1.201c0-1.081,0.238-1.081,0.476-3.484c0.119-1.081-0.595-1.922-1.309-2.523
								c0.714-0.601,1.428-1.321,1.309-2.403C9.773,9.597,9.654,9.597,9.654,8.515c0-1.442,2.142-1.321,2.142-1.321V4.791H9.297
								C7.988,4.791,6.798,5.993,7.155,8.515L7.155,8.515L7.155,8.515z"/>
							<path id="Shape_2_" d="M21.195,8.515c-0.238,1.562-0.476,1.922-0.476,3.484c0,0.961,1.785,1.802,1.785,1.802v1.201
								c0,0-1.785,0.841-1.785,1.802c0,1.562,0.238,1.922,0.476,3.484c0.357,2.523-0.952,3.724-2.142,3.724h-2.499V21.61
								c0,0,2.142,0.24,2.142-1.201c0-1.081-0.238-1.081-0.476-3.484c-0.119-1.081,0.595-1.922,1.309-2.523
								c-0.714-0.601-1.428-1.321-1.309-2.403c0.238-2.403,0.476-2.403,0.476-3.484c0-1.442-2.142-1.321-2.142-1.321V4.791h2.499
								C20.362,4.791,21.552,5.993,21.195,8.515L21.195,8.515L21.195,8.515z"/>
						</g>
					</g>
				</g>
			</g>
		</g>
	</g>
</g>
</svg>
