<?xml version="1.0" encoding="utf-8"?>
<!-- Generator: Adobe Illustrator 17.0.0, SVG Export Plug-In . SVG Version: 6.00 Build 0)  -->
<!DOCTYPE svg PUBLIC "-//W3C//DTD SVG 1.1//EN" "http://www.w3.org/Graphics/SVG/1.1/DTD/svg11.dtd">
<svg version="1.1" id="图层_1" xmlns="http://www.w3.org/2000/svg" xmlns:xlink="http://www.w3.org/1999/xlink" x="0px" y="0px"
	 width="28.35px" height="28.35px" viewBox="0 0 28.35 28.35" enable-background="new 0 0 28.35 28.35" xml:space="preserve">
<g>
	<path d="M21.779,16.028c-0.552-0.001-1.001,0.448-1.002,1l0.002,4.539l-14.281-0.02L6.517,9.552l4.698-0.016
		c0.552-0.001,1.001-0.463,1.002-1.016c0.001-0.553-0.446-1.018-0.998-1.019L5.52,7.515C4.968,7.514,4.519,7.96,4.518,8.513
		L4.497,22.526c-0.001,0.553,0.446,1.001,0.998,1.002l16.281,0.033c0.552,0.001,1.001-0.445,1.002-0.998v-5.534
		C22.778,16.475,22.331,16.029,21.779,16.028z"/>
	<path d="M23.121,5.917l-0.011-0.096c-0.116-0.591-0.594-0.991-1.166-1.024L21.878,4.79l-0.085,0.016l-0.022,0.001l-6.383,0.41
		c-0.662,0.037-1.133,0.6-1.048,1.253c0.069,0.658,0.661,1.154,1.322,1.106l3.536-0.227l-6.547,7.825
		c-0.42,0.502-0.325,1.239,0.195,1.674c0.521,0.436,1.251,0.389,1.671-0.113l6.564-7.996l0.418,3.535
		c0.047,0.825,0.639,1.321,1.299,1.272c0.645-0.041,1.116-0.605,1.048-1.253L23.121,5.917z"/>
</g>
</svg>
