<?xml version="1.0" encoding="utf-8"?>
<!-- Generator: Adobe Illustrator 17.0.0, SVG Export Plug-In . SVG Version: 6.00 Build 0)  -->
<!DOCTYPE svg PUBLIC "-//W3C//DTD SVG 1.1//EN" "http://www.w3.org/Graphics/SVG/1.1/DTD/svg11.dtd">
<svg version="1.1" id="图层_1" xmlns="http://www.w3.org/2000/svg" xmlns:xlink="http://www.w3.org/1999/xlink" x="0px" y="0px"
	 width="28.35px" height="28.35px" viewBox="0 0 28.35 28.35" enable-background="new 0 0 28.35 28.35" xml:space="preserve">
<path d="M14.409,6.664L14.409,6.664c-0.923,0.106-1.82,0.34-2.65,0.679c-1.173,0.494-2.227,1.196-3.102,2.077H8.644
	c-0.875,0.884-1.586,1.935-2.07,3.115L6.559,12.58c-0.462,1.121-0.709,2.346-0.709,3.605c0,1.285,0.257,2.522,0.725,3.659l0,0l0,0
	c0.484,1.167,1.195,2.234,2.07,3.102l0.064,0.058c0.868,0.853,1.907,1.548,3.05,2.019c1.131,0.468,2.369,0.724,3.66,0.724
	c1.282,0,2.518-0.256,3.65-0.724c1.173-0.484,2.231-1.195,3.108-2.077c0.381-0.4,0.381-1.026,0-1.423
	c-0.394-0.385-1.025-0.385-1.423,0c-0.685,0.711-1.532,1.272-2.448,1.651v0.006c-0.881,0.362-1.862,0.561-2.887,0.561
	c-1.023,0-2.003-0.199-2.9-0.567c-0.895-0.372-1.721-0.91-2.403-1.593l-0.049-0.058c-0.705-0.696-1.259-1.535-1.644-2.451v0.006
	c-0.368-0.891-0.577-1.865-0.577-2.894c0-1.009,0.209-1.971,0.564-2.852l0.012-0.035c0.385-0.917,0.939-1.756,1.644-2.455l0,0
	c0.702-0.696,1.529-1.263,2.452-1.647c0.596-0.243,1.236-0.413,1.89-0.507v2.951c0,0.555,0.455,0.997,1.01,0.997
	c0.272,0,0.528-0.102,0.711-0.289l2.006-2.009l2.006-2.006c0.397-0.39,0.397-1.032,0-1.416L20.12,6.905l-1.984-1.996l-2.006-2.013
	c-0.398-0.391-1.022-0.391-1.42,0c-0.201,0.182-0.301,0.446-0.301,0.696v0.041V6.664L14.409,6.664z"/>
</svg>
