<?xml version="1.0" encoding="utf-8"?>
<!-- Generator: Adobe Illustrator 17.0.0, SVG Export Plug-In . SVG Version: 6.00 Build 0)  -->
<!DOCTYPE svg PUBLIC "-//W3C//DTD SVG 1.1//EN" "http://www.w3.org/Graphics/SVG/1.1/DTD/svg11.dtd">
<svg version="1.1" id="图层_1" xmlns="http://www.w3.org/2000/svg" xmlns:xlink="http://www.w3.org/1999/xlink" x="0px" y="0px"
	 width="28.35px" height="28.35px" viewBox="0 0 28.35 28.35" enable-background="new 0 0 28.35 28.35" xml:space="preserve">
<path d="M22.738,12.69h-6.896c-0.222-0.104-0.453-0.207-0.694-0.31c-2.021-0.863-3.29-1.578-3.809-2.144
	c-0.529-0.565-0.793-1.227-0.793-1.984c0-0.858,0.321-1.587,0.964-2.19c0.643-0.602,1.506-0.903,2.591-0.903
	c0.766,0,1.456,0.153,2.071,0.459s1.073,0.729,1.374,1.269c0.301,0.54,0.569,1.395,0.807,2.565h1.039
	c-0.046-0.948-0.068-1.7-0.068-2.256c0-0.273,0.022-1.075,0.068-2.406c-1.914-0.647-3.546-0.971-4.895-0.971
	c-1.121,0-2.203,0.248-3.247,0.745s-1.834,1.17-2.372,2.022S8.072,8.332,8.072,9.27c0,1.075,0.333,1.999,0.998,2.773
	c0.181,0.213,0.414,0.429,0.692,0.647H5.613v1.596h6.943c0.155,0.07,0.308,0.141,0.472,0.212c1.974,0.853,3.256,1.617,3.849,2.292
	c0.583,0.684,0.875,1.468,0.875,2.353c0,1.086-0.405,1.93-1.215,2.532c-0.811,0.602-1.752,0.903-2.825,0.903
	c-0.783,0-1.502-0.175-2.157-0.526c-0.655-0.351-1.145-0.8-1.468-1.347c-0.322-0.547-0.634-1.504-0.935-2.871H8.099
	c0,2.124-0.068,3.828-0.205,5.113c1.203,0.401,2.235,0.684,3.097,0.848s1.721,0.246,2.577,0.246c1.258,0,2.432-0.267,3.521-0.801
	c1.089-0.534,1.905-1.248,2.447-2.143c0.542-0.895,0.813-1.862,0.813-2.903c0-1.159-0.359-2.204-1.078-3.135
	c-0.205-0.26-0.468-0.517-0.775-0.772h4.242V12.69z"/>
</svg>
