<?xml version="1.0" encoding="utf-8"?>
<!-- Generator: Adobe Illustrator 17.0.0, SVG Export Plug-In . SVG Version: 6.00 Build 0)  -->
<!DOCTYPE svg PUBLIC "-//W3C//DTD SVG 1.1//EN" "http://www.w3.org/Graphics/SVG/1.1/DTD/svg11.dtd">
<svg version="1.1" id="图层_1" xmlns="http://www.w3.org/2000/svg" xmlns:xlink="http://www.w3.org/1999/xlink" x="0px" y="0px"
	 width="28.35px" height="28.35px" viewBox="0 0 28.35 28.35" enable-background="new 0 0 28.35 28.35" xml:space="preserve">
<g>
	<g transform="matrix(0.034568000584840775, 0, 0, 0.03416900336742401, 0, 0)">
		<path fill="#040000" d="M556.38,587.555H432.764L292.093,422.523L154.609,587.555H33.658l199.274-225.653L43.244,148.952H165.27
			l132.171,154.39l133.182-154.39h116.703l-191.83,212.95L556.38,587.555z M632.337,679.28l80.493-60.962
			c28.235-19.386,46.785-37.397,55.677-54.003c8.893-16.598,13.321-34.446,13.321-53.565c0-31.223-10.44-56.426-31.305-75.61
			c-20.863-19.19-48.307-28.774-82.302-28.774c-32.771,0-59.008,9.703-78.629,29.103c-19.677,19.415-29.496,48.667-29.496,87.784
			h63.23c0-23.339,4.131-39.478,12.385-48.425c8.262-8.946,19.586-13.428,34.005-13.428c14.41,0,25.796,4.553,34.238,13.645
			c8.389,9.091,12.593,20.396,12.593,33.897c0,13.483-3.889,25.687-11.71,36.606c-7.812,10.918-29.513,29.333-65.138,55.255
			c-30.486,22.286-71.708,43.294-84.084,62.986l0.62,73.249h226.287v-57.767H632.335v0.009H632.337z"/>
	</g>
</g>
</svg>
