<?xml version="1.0" encoding="utf-8"?>
<!-- Generator: Adobe Illustrator 17.0.0, SVG Export Plug-In . SVG Version: 6.00 Build 0)  -->
<!DOCTYPE svg PUBLIC "-//W3C//DTD SVG 1.1//EN" "http://www.w3.org/Graphics/SVG/1.1/DTD/svg11.dtd">
<svg version="1.1" id="图层_1" xmlns="http://www.w3.org/2000/svg" xmlns:xlink="http://www.w3.org/1999/xlink" x="0px" y="0px"
	 width="28.35px" height="28.35px" viewBox="0 0 28.35 28.35" enable-background="new 0 0 28.35 28.35" xml:space="preserve">
<g>
	<g transform="matrix(0.03456100076436997, 0, 0, 0.03262700140476227, 0, 0)">
		<path fill="#040000" d="M361.251,514.624L551.374,728.19H434.382L301.246,571.996L171.128,728.19H56.648l188.594-213.565
			L65.729,313.081h115.489l125.086,146.123l126.06-146.122h110.45L361.251,514.624z M621.209,370.218l78.361-57.695
			c26.722-18.362,44.279-35.395,52.694-51.116c8.408-15.712,12.607-32.597,12.607-50.689c0-29.556-9.881-53.412-29.619-71.563
			c-19.754-18.162-45.727-27.234-77.901-27.234c-31.024,0-55.838,9.188-74.418,27.548c-18.619,18.371-27.911,46.056-27.911,83.085
			h59.842c0-22.093,3.919-37.367,11.738-45.838c7.82-8.473,18.535-12.71,32.183-12.71c13.629,0,24.398,4.311,32.388,12.919
			c7.957,8.6,11.926,19.294,11.926,32.076c0,12.76-3.681,24.307-11.075,34.644c-7.395,10.338-27.94,27.774-61.656,52.312
			c-28.844,21.092-67.875,40.961-79.579,59.613l0.587,69.311h214.163v-54.664C765.538,370.218,621.209,370.218,621.209,370.218z"/>
	</g>
</g>
</svg>
