<?xml version="1.0" encoding="utf-8"?>
<!-- Generator: Adobe Illustrator 17.0.0, SVG Export Plug-In . SVG Version: 6.00 Build 0)  -->
<!DOCTYPE svg PUBLIC "-//W3C//DTD SVG 1.1//EN" "http://www.w3.org/Graphics/SVG/1.1/DTD/svg11.dtd">
<svg version="1.1" id="图层_1" xmlns="http://www.w3.org/2000/svg" xmlns:xlink="http://www.w3.org/1999/xlink" x="0px" y="0px"
	 width="28.35px" height="28.35px" viewBox="0 0 28.35 28.35" enable-background="new 0 0 28.35 28.35" xml:space="preserve">
<rect x="5.762" y="22.677" width="17.188" height="1.333"/>
<path d="M17.911,4.131v0.878h0.943v9.443c0,1.314-0.104,2.243-0.311,2.784s-0.546,1.012-1.016,1.41
	c-0.892,0.741-2.047,1.111-3.465,1.111c-0.995,0-1.859-0.185-2.593-0.556c-0.732-0.371-1.278-0.862-1.637-1.476
	s-0.537-1.705-0.537-3.274V5.009h0.943V4.131h-4.25v0.878h0.905v9.419c0,1.346,0.09,2.334,0.27,2.963
	c0.179,0.629,0.406,1.161,0.681,1.595s0.611,0.826,1.01,1.177c1.314,1.131,3.059,1.697,5.233,1.697c2.135,0,3.863-0.57,5.186-1.709
	c0.397-0.342,0.734-0.73,1.009-1.165c0.275-0.434,0.506-0.978,0.693-1.631c0.188-0.653,0.281-1.621,0.281-2.903V5.009h0.905V4.131
	H17.911z"/>
</svg>
