<?xml version="1.0" encoding="utf-8"?>
<!-- Generator: Adobe Illustrator 17.0.0, SVG Export Plug-In . SVG Version: 6.00 Build 0)  -->
<!DOCTYPE svg PUBLIC "-//W3C//DTD SVG 1.1//EN" "http://www.w3.org/Graphics/SVG/1.1/DTD/svg11.dtd">
<svg version="1.1" id="图层_1" xmlns="http://www.w3.org/2000/svg" xmlns:xlink="http://www.w3.org/1999/xlink" x="0px" y="0px"
	 width="28.35px" height="28.35px" viewBox="0 0 28.35 28.35" enable-background="new 0 0 28.35 28.35" xml:space="preserve">
<path d="M13.927,6.664L13.927,6.664c0.929,0.106,1.826,0.34,2.65,0.679c1.167,0.494,2.218,1.196,3.115,2.077
	c0.875,0.884,1.586,1.935,2.071,3.115l0.019,0.045c0.458,1.121,0.705,2.346,0.705,3.605c0,1.285-0.247,2.522-0.724,3.659l0,0
	c-0.484,1.167-1.196,2.234-2.071,3.102l-0.057,0.058c-0.866,0.853-1.904,1.548-3.058,2.019c-1.131,0.468-2.361,0.724-3.653,0.724
	c-1.282,0-2.519-0.256-3.64-0.724H9.268c-1.173-0.484-2.218-1.195-3.099-2.077c-0.407-0.4-0.407-1.026,0-1.423
	c0.381-0.385,1.023-0.385,1.407,0c0.705,0.711,1.534,1.272,2.451,1.651v0.006c0.891,0.362,1.871,0.561,2.897,0.561
	c1.028,0,2.003-0.199,2.894-0.567c0.904-0.372,1.721-0.91,2.41-1.593l0.041-0.058c0.711-0.696,1.259-1.535,1.644-2.451l0.007,0.006
	c0.369-0.891,0.57-1.865,0.57-2.894c0-1.009-0.201-1.971-0.557-2.852l-0.02-0.035c-0.385-0.917-0.933-1.756-1.644-2.455l0,0
	c-0.695-0.696-1.522-1.263-2.451-1.647c-0.589-0.243-1.231-0.413-1.891-0.507v2.951c0,0.555-0.448,0.997-1.003,0.997
	c-0.272,0-0.529-0.102-0.711-0.289l-2.006-2.009L8.201,8.334c-0.398-0.39-0.398-1.032,0-1.416l0.016-0.012l1.99-1.996l2.006-2.013
	c0.397-0.391,1.028-0.391,1.423,0c0.199,0.182,0.291,0.446,0.291,0.696v0.041V6.664L13.927,6.664z"/>
</svg>
