<?xml version="1.0" encoding="utf-8"?>
<!-- Generator: Adobe Illustrator 17.0.0, SVG Export Plug-In . SVG Version: 6.00 Build 0)  -->
<!DOCTYPE svg PUBLIC "-//W3C//DTD SVG 1.1//EN" "http://www.w3.org/Graphics/SVG/1.1/DTD/svg11.dtd">
<svg version="1.1" id="图层_1" xmlns="http://www.w3.org/2000/svg" xmlns:xlink="http://www.w3.org/1999/xlink" x="0px" y="0px"
	 width="28.35px" height="28.35px" viewBox="0 0 28.35 28.35" enable-background="new 0 0 28.35 28.35" xml:space="preserve">
<path fill="#040000" d="M23.184,5.799c-2.095-2.095-5.503-2.094-7.597,0l-1.445,1.444c-0.091,0.091-0.171,0.173-0.252,0.275
	c-0.337,0.426-0.266,1.045,0.16,1.383c0.426,0.337,1.044,0.266,1.383-0.159c0.03-0.038,0.062-0.067,0.098-0.104l1.447-1.447
	c1.326-1.327,3.486-1.328,4.87,0.056c1.327,1.327,1.327,3.487,0,4.814l-2.847,2.847c-0.033,0.033-0.061,0.063-0.144,0.132
	c-0.108,0.098-0.224,0.189-0.346,0.272c-0.137-1.193-0.672-2.334-1.589-3.251c-1.283-1.284-3.1-1.832-4.857-1.466
	c-0.003,0.001-0.006,0.001-0.009,0.001c-0.003,0.001-0.006,0.001-0.009,0.001c-0.944,0.195-1.808,0.63-2.457,1.219
	c-0.095,0.076-0.172,0.151-0.266,0.244l-2.838,2.839c-2.095,2.094-2.095,5.502,0.056,7.652c1.047,1.047,2.423,1.571,3.798,1.571
	c1.375,0,2.751-0.524,3.798-1.571l1.447-1.447c0.089-0.089,0.167-0.17,0.246-0.269c0.34-0.424,0.271-1.043-0.154-1.383
	c-0.423-0.339-1.043-0.271-1.383,0.154c-0.032,0.04-0.065,0.071-0.101,0.107l-1.447,1.447c-1.327,1.326-3.487,1.327-4.87-0.056
	c-1.327-1.327-1.327-3.487,0-4.814l2.842-2.842c0.036-0.035,0.067-0.068,0.149-0.137c0.108-0.098,0.224-0.189,0.346-0.272
	c0.136,1.193,0.672,2.334,1.589,3.251c1.022,1.022,2.382,1.578,3.783,1.578c0.357,0,0.718-0.037,1.076-0.111
	c0.002,0,0.005-0.001,0.007-0.001c0.003-0.001,0.006-0.001,0.009-0.001c0.943-0.196,1.807-0.631,2.452-1.218
	c0.095-0.075,0.171-0.149,0.269-0.246l2.838-2.839C25.334,11.357,25.334,7.949,23.184,5.799z M14.14,14.843
	c-0.646-0.646-0.992-1.503-0.995-2.385c0.884,0.004,1.751,0.358,2.442,1.049c0.646,0.646,0.993,1.504,0.995,2.387
	C15.698,15.89,14.83,15.534,14.14,14.843z"/>
<path d="M8.144,10.315L8.144,10.315c-0.179,0-0.321-0.145-0.321-0.321c0-0.179,0.142-0.324,0.321-0.324h1.003
	c0.179,0,0.322,0.145,0.322,0.321c0,0.179-0.143,0.324-0.322,0.324H8.144L8.144,10.315z M8.504,8.326L8.504,8.326
	C8.347,8.239,8.296,8.041,8.388,7.887c0.086-0.156,0.286-0.209,0.441-0.119L9.919,8.4c0.154,0.087,0.205,0.285,0.12,0.437
	c-0.092,0.156-0.29,0.206-0.441,0.119L8.504,8.326L8.504,8.326z M9.809,6.786L9.809,6.786l0.758,1.318
	c0.092,0.153,0.29,0.209,0.443,0.117c0.154-0.087,0.205-0.287,0.115-0.441l-0.761-1.315c-0.087-0.152-0.285-0.207-0.437-0.117
	C9.772,6.437,9.721,6.634,9.809,6.786L9.809,6.786z M11.708,6.105L11.708,6.105c0-0.174,0.147-0.323,0.321-0.323
	c0.179,0,0.326,0.144,0.326,0.323v1.518c0,0.179-0.144,0.324-0.326,0.326c-0.174,0-0.321-0.143-0.321-0.326V6.105L11.708,6.105z"/>
<path d="M22.143,18.007L22.143,18.007c0.181,0.01,0.317,0.164,0.307,0.343c-0.01,0.182-0.162,0.321-0.343,0.311l-1.015-0.055
	c-0.182-0.01-0.318-0.165-0.308-0.343c0.01-0.182,0.162-0.32,0.344-0.311L22.143,18.007L22.143,18.007z M21.67,20L21.67,20
	c0.154,0.097,0.194,0.3,0.093,0.451c-0.096,0.154-0.301,0.196-0.453,0.096l-1.069-0.7c-0.152-0.097-0.192-0.3-0.098-0.449
	c0.102-0.152,0.305-0.193,0.453-0.096L21.67,20L21.67,20z M20.263,21.488L20.263,21.488l-0.695-1.376
	c-0.085-0.16-0.282-0.228-0.443-0.143c-0.161,0.08-0.224,0.279-0.141,0.441l0.698,1.373c0.08,0.159,0.277,0.226,0.436,0.143
	C20.282,21.843,20.344,21.646,20.263,21.488L20.263,21.488z M18.303,22.072L18.303,22.072c-0.01,0.176-0.167,0.319-0.343,0.309
	c-0.182-0.01-0.322-0.164-0.313-0.345l0.084-1.537c0.01-0.181,0.164-0.32,0.348-0.312c0.176,0.01,0.317,0.162,0.307,0.348
	L18.303,22.072L18.303,22.072z"/>
</svg>
